<?xml version="1.0" standalone="no"?><svg xmlns="http://www.w3.org/2000/svg" viewBox="0 0 1440 320"><path fill="#00debe" fill-opacity="1" d="M0,160L34.3,154.7C68.6,149,137,139,206,154.7C274.3,171,343,213,411,240C480,267,549,277,617,245.3C685.7,213,754,139,823,112C891.4,85,960,107,1029,128C1097.1,149,1166,171,1234,165.3C1302.9,160,1371,128,1406,112L1440,96L1440,0L1405.7,0C1371.4,0,1303,0,1234,0C1165.7,0,1097,0,1029,0C960,0,891,0,823,0C754.3,0,686,0,617,0C548.6,0,480,0,411,0C342.9,0,274,0,206,0C137.1,0,69,0,34,0L0,0Z"></path></svg>